<svg xmlns="http://www.w3.org/2000/svg" version="1.1" xmlns:xlink="http://www.w3.org/1999/xlink" xmlns:svgjs="http://svgjs.com/svgjs" width="1920" height="1920" preserveAspectRatio="none" viewBox="0 0 1920 1920"><g mask="url(&quot;#SvgjsMask1402&quot;)" fill="none"><rect width="1920" height="1920" x="0" y="0" fill="url(#SvgjsLinearGradient1403)"></rect><path d="M1920 0L1048.2 0L1920 527.41z" fill="rgba(255, 255, 255, .1)"></path><path d="M1048.2 0L1920 527.41L1920 761.8299999999999L823.84 0z" fill="rgba(255, 255, 255, .075)"></path><path d="M823.8400000000001 0L1920 761.8299999999999L1920 1225.4099999999999L430.94000000000017 0z" fill="rgba(255, 255, 255, .05)"></path><path d="M430.94000000000005 0L1920 1225.4099999999999L1920 1430.6399999999999L291.82000000000005 0z" fill="rgba(255, 255, 255, .025)"></path><path d="M0 1920L292.18 1920L0 1866.23z" fill="rgba(0, 0, 0, .1)"></path><path d="M0 1866.23L292.18 1920L954.9000000000001 1920L0 1666.77z" fill="rgba(0, 0, 0, .075)"></path><path d="M0 1666.77L954.9000000000001 1920L1278.97 1920L0 1616.32z" fill="rgba(0, 0, 0, .05)"></path><path d="M0 1616.32L1278.97 1920L1322.17 1920L0 1310.58z" fill="rgba(0, 0, 0, .025)"></path></g><defs><mask id="SvgjsMask1402"><rect width="1920" height="1920" fill="#ffffff"></rect></mask><linearGradient x1="0%" y1="100%" x2="100%" y2="0%" gradientUnits="userSpaceOnUse" id="SvgjsLinearGradient1403"><stop stop-color="rgba(180, 197, 240, 0.8)" offset="0"></stop><stop stop-color="rgba(255, 255, 255, 1)" offset="0.82"></stop></linearGradient></defs></svg>