<svg xmlns="http://www.w3.org/2000/svg" version="1.1" xmlns:xlink="http://www.w3.org/1999/xlink" xmlns:svgjs="http://svgjs.com/svgjs" width="1920" height="1080" preserveAspectRatio="none" viewBox="0 0 1920 1080"><g mask="url(&quot;#SvgjsMask1394&quot;)" fill="none"><rect width="1920" height="1080" x="0" y="0" fill="url(#SvgjsLinearGradient1395)"></rect><path d="M1920 0L1388.3400000000001 0L1920 144.67z" fill="rgba(255, 255, 255, .1)"></path><path d="M1388.3400000000001 0L1920 144.67L1920 234.32999999999998L1299.2 0z" fill="rgba(255, 255, 255, .075)"></path><path d="M1299.2 0L1920 234.32999999999998L1920 433.74L524.13 0z" fill="rgba(255, 255, 255, .05)"></path><path d="M524.1300000000001 0L1920 433.74L1920 799.89L296.4400000000001 0z" fill="rgba(255, 255, 255, .025)"></path><path d="M0 1080L479.87 1080L0 540.13z" fill="rgba(0, 0, 0, .1)"></path><path d="M0 540.13L479.87 1080L1273.05 1080L0 487.87z" fill="rgba(0, 0, 0, .075)"></path><path d="M0 487.87L1273.05 1080L1468.44 1080L0 220.35000000000002z" fill="rgba(0, 0, 0, .05)"></path><path d="M0 220.35000000000002L1468.44 1080L1493.38 1080L0 117.54000000000002z" fill="rgba(0, 0, 0, .025)"></path></g><defs><mask id="SvgjsMask1394"><rect width="1920" height="1080" fill="#ffffff"></rect></mask><linearGradient x1="10.94%" y1="119.44%" x2="89.06%" y2="-19.44%" gradientUnits="userSpaceOnUse" id="SvgjsLinearGradient1395"><stop stop-color="rgba(180, 197, 240, 0.8)" offset="0"></stop><stop stop-color="rgba(255, 255, 255, 1)" offset="0.82"></stop></linearGradient></defs></svg>